<?xml version="1.0" standalone="yes"?>
<svg viewBox="0 0 287 104" xmlns="http://www.w3.org/2000/svg">
  <g fill="none" fill-rule="evenodd">
    <path d="M262.65 60.512h.957l.327-4.302c.03-.416.02-1.025.02-1.025h.02s.213.658.367 1.025l1.353 3.074h.85l1.364-3.074c.164-.377.368-1.006.368-1.006h.019s-.02.59.01 1.006l.337 4.302h.947l-.55-6.825h-1.005l-1.567 3.692c-.154.378-.337.92-.337.92h-.02s-.184-.542-.339-.92l-1.566-3.692H263.2l-.55 6.825zm-4.06 0h.958v-5.994h2.339v-.83h-5.637v.83h2.34v5.994zm-17.75.912c.47-2.589 2.236-4.158 4.785-4.158 2.196 0 3.882 1.452 3.962 4.158h-8.748zm4.903-8.002c-5.963 0-10.16 4.315-10.16 10.473 0 5.688 4.12 10.473 10.748 10.473 4.98 0 8.04-2.864 8.04-2.864l-1.922-3.569s-2.55 2.196-5.764 2.196c-2.983 0-5.689-1.804-6.002-5.294h13.806s.118-1.334.118-1.923c0-5.295-3.099-9.492-8.864-9.492zm-20.713 0c-6.629 0-10.863 4.785-10.863 10.473 0 5.805 4.234 10.472 10.863 10.472 5.375 0 8.238-3.255 8.238-3.255l-1.923-3.53s-2.508 2.55-5.883 2.55c-3.805 0-6.236-2.903-6.236-6.277 0-3.412 2.392-6.197 6.08-6.197 3.137 0 5.218 2.158 5.218 2.158l2.195-3.413s-2.47-2.98-7.689-2.98zm-24.006 17.062c-2.04 0-3.02-1.255-3.02-2.589 0-2.785 4.119-3.137 6.669-3.137h.863v.47c0 2.432-1.883 5.256-4.512 5.256zm3.805-9.139c-3.256 0-11.846.431-11.846 6.786 0 4.002 3.216 6.236 6.786 6.236 4.55 0 6.12-3.53 6.08-3.53h.079s-.078.63-.078 1.412v1.648h4.589V61.385c0-5.06-3.06-7.962-8.316-7.962-4.746 0-7.844 2.47-7.844 2.47l1.882 3.57s2.627-1.923 5.492-1.923c2.196 0 3.844.902 3.844 3.531v.274h-.668zm-21.575 6.315c0 5.727 3.415 6.433 6.16 6.433.823 0 1.569-.117 1.569-.117v-4.354s-.355.04-.746.04c-1.296 0-2.04-.55-2.04-2.747V46.048h-4.942V67.66zm-17.965-7.766v-9.492h4.824c2.863 0 4.589 1.844 4.589 4.707 0 2.903-1.726 4.785-4.667 4.785h-4.746zm-5.06 14.003h5.06v-9.61h5.687c5.216 0 8.864-3.765 8.864-9.178s-3.648-9.06-8.864-9.06h-10.748v27.848zm116.107-38.339c-2.942 0-4.983-2.47-4.983-6.275 0-3.962 2.276-6.198 5.022-6.198 3.334 0 4.983 3.06 4.983 6.158 0 4.433-2.433 6.315-5.022 6.315zm-.942-16.749c-5.296 0-9.06 4.12-9.06 10.474 0 6.197 3.452 10.473 8.863 10.473 4.59 0 6.276-3.412 6.276-3.412h.08s-.08.547-.08 1.293v1.647h4.707V11.435h-4.98v8.787c0 .627.038 1.137.038 1.137h-.077s-1.373-2.55-5.767-2.55zm-25.575 8.002c.47-2.589 2.237-4.157 4.786-4.157 2.196 0 3.883 1.451 3.962 4.157h-8.748zm4.904-8.002c-5.963 0-10.16 4.315-10.16 10.474 0 5.687 4.12 10.473 10.748 10.473 4.98 0 8.04-2.865 8.04-2.865l-1.921-3.568s-2.55 2.195-5.766 2.195c-2.981 0-5.688-1.802-6.001-5.294h13.806s.118-1.334.118-1.922c0-5.295-3.099-9.493-8.864-9.493zM232.048 31.95c0 6.707 5.53 7.531 8.316 7.531.941 0 1.53-.118 1.53-.118V35.01s-.353.08-.903.08c-1.373 0-3.96-.472-3.96-3.767v-7.766h4.548v-3.96h-4.549v-5.768h-4.864v5.767h-2.707v3.961h2.59v8.394zm-20.28 4.864s2.785 2.942 7.767 2.942c4.746 0 7.649-2.667 7.649-6.002 0-6.432-9.727-6.079-9.727-8.903 0-1.256 1.255-1.805 2.548-1.805 3.06 0 4.904 1.726 4.904 1.726l1.844-3.686s-2.197-2.276-6.708-2.276c-4.314 0-7.648 2.158-7.648 5.884 0 6.433 9.727 6.04 9.727 9.022 0 1.176-1.216 1.803-2.627 1.803-3.256 0-5.453-2.196-5.453-2.196l-2.275 3.491zm-22.476-4.668c0 5.451 2.667 7.61 6.942 7.61 3.413 0 5.962-2.079 6.942-4.159h.08s-.08.628-.08 1.413v2.274h4.786V19.281h-4.98v9.178c0 3.57-2 6.746-5.61 6.746-2.471 0-3.099-1.647-3.099-4.079V19.281h-4.98v12.865zm-15.142 7.138h4.982v-7.922c0-1.177.118-2.275.432-3.257.94-2.98 3.334-4.197 5.453-4.197.667 0 1.175.08 1.175.08v-4.904s-.431-.077-.9-.077c-3.06 0-5.454 2.274-6.356 5.137h-.079s.08-.667.08-1.41V19.28h-4.786v20.003zM160.226 15.79h-9.14v-4.354h23.338v4.354h-9.138v23.495h-5.06V15.79z" fill="#526D6F"/>
    <path d="M9.752 47.538l8.718-3.691c.258-2.663.956-5.173 2.314-7.565-4.972 3.399-8.737 7.21-11.032 11.256zm8.754 2.438a42.711 42.711 0 0 1-.135-2.33L7.829 52.112c-.522 1.884-.742 3.8-.601 5.737.06.844.204 1.672.389 2.49l11.166-8.414a18.3 18.3 0 0 1-.277-1.948zm96.467-13.886a48.217 48.217 0 0 0-4.271-4.034 66.47 66.47 0 0 0-3.827-2.82c-.036-.025-.063-.055-.096-.082-7.317-4.8-16.882-7.835-30.412-7.835-.3 0-.613.01-.917.013 4.947 2.55 7.522 6.2 8.454 7.78l15.962 5.007 13.364 22.053c3.713-3.783 5.319-8.322 4.853-13.643-.2-2.282-1.404-4.443-3.11-6.44zm-3.183 36.406l-3.916-8.391c-3.114 1.653-6.753 3.103-10.917 4.345l3.196 9.642c4.245-1.662 8.172-3.551 11.637-5.596zM50.52 92.124l5.028-3.487c-7.944-.422-15.386-1.7-22.024-3.675-.458.3-1.03.843-1.321 1.8-.53 1.732.832 9.504.832 9.504s14.543 7.293 16.937 7.007c2.394-.287 7.29-3.748 6.88-4.877-.412-1.128-6.332-6.272-6.332-6.272zm-23.745-28.01c-.153-.118-.317-.23-.466-.351-2.974-2.402-5.14-5.224-6.44-8.324L8.778 63.797c2.097 4.612 6.18 8.705 11.759 12.048l6.238-11.73zm112.498-9.392c-1.052-2.808-2.163-2.484-2.163-2.484l-5.044.684-2.596-1.836c1.075 3.335.706 6.903-1.123 10.476a20.638 20.638 0 0 1-1.091 1.853c3.803-1.341 13.359-5.112 12.017-8.693zM97.583 37.03l-13.431-4.213L81.74 40.9l11.868 24.72-1.025.493c7.79-1.932 13.777-4.473 17.993-7.64L97.583 37.03zM16.42 77.112C11.865 82.176-.05 82.909 0 83.94c1.03.408 18.298-1.012 25.982-1.67-3.544-1.5-6.753-3.23-9.562-5.158zm53.086 7.926c2.167-.158 4.337-.392 6.497-.69L74.48 72.652c-4.265.432-8.39.657-12.324.657-2.297 0-4.523-.082-6.688-.227l-2.872 11.906c5.4.434 11.072.473 16.91.05zM60.71 52.213c-2.627-.252-8.636-1.14-14.982-4.158l-2.873 19.659c5.888 1.489 12.766 2.206 20.362 2.123L60.71 52.213zm36.195 27.082l-3.29-9.92c-4.656 1.192-9.887 2.158-15.697 2.892l1.506 11.55a108.168 108.168 0 0 0 17.48-4.522zM51.98 72.783c-8.968-.954-16.596-3.213-22.335-6.695l-6.072 11.417c6.949 3.52 15.713 6.016 25.543 7.148l2.864-11.87zm68.385-21.427l5.986 5.659c.558-2.485.168-4.86-1.203-7.083a136.096 136.096 0 0 0-3.537-5.474c-.016 2.449-.432 4.749-1.246 6.898zm-9.494 10.989l3.872 8.296c4.702-3.158 8.274-6.616 10.242-10.154l-6.218-5.88c-1.79 2.902-4.427 5.48-7.896 7.738zM28.484 61.07c2.92 2.36 6.64 4.26 11.014 5.683l2.985-20.425a36.013 36.013 0 0 1-5.527-4.032l-15.062 6.538c.02.279.035.555.06.839.382 4.37 2.58 8.206 6.53 11.397zm48.766 7.794c4.764-.596 9.096-1.332 13.018-2.207L78.69 42.54l-12.361-2.9-2.47 10.124 2.842 19.98c3.398-.143 6.915-.426 10.549-.88zm1.449-29.876l2.355-7.89c-.61-1.082-3.327-5.38-9.212-7.6-1.84-.694-3.901-1.347-6.523-1.575l-.328.03a131.475 131.475 0 0 0-12.778 1.983c6.806 3.742 12.754 10.559 14.084 12.14l12.402 2.912zm45.78-31.832a1.858 1.858 0 1 0 3.703-.323 1.858 1.858 0 0 0-3.702.323zm-14.822 10.976c-.27-2.705 5.675-9.22 6.43-10.3 1.09-4.898 6.35-5.485 6.35-5.485L126.15 0c4.907 2.605 5.397 7.518 5.997 10.729.534 2.863-5.15 19.788-12.02 26.015a60 60 0 0 0-2.114-2.438c-2.367-2.918-5.622-5.45-8.848-7.692.12-1.006.72-6.196.492-8.481zm-46.443 19.67c-2.242-2.57-9.77-10.696-16.751-12.53-5.19 1.347-10 2.989-14.35 4.87 7.05 14.85 23.246 17.946 28.442 18.56l2.659-10.9zM29.23 32.15a33.07 33.07 0 0 0 5.086 7.519l-12.473 5.415c.268-4.941 2.107-9.012 7.387-12.934z" fill="#8DC63F"/>
  </g>
</svg>
